<svg width="404" height="100" viewBox="0 0 404 100" fill="none" xmlns="http://www.w3.org/2000/svg">
<path d="M44.03 44.45C44.03 47.5767 43.3067 50.4233 41.86 52.99C40.4133 55.51 38.2667 57.5167 35.42 59.01C32.62 60.5033 29.2133 61.25 25.2 61.25H19.04V77H3.5V27.44H25.2C31.2667 27.44 35.91 28.98 39.13 32.06C42.3967 35.14 44.03 39.27 44.03 44.45ZM23.45 49C26.67 49 28.28 47.4833 28.28 44.45C28.28 41.4167 26.67 39.9 23.45 39.9H19.04V49H23.45ZM67.719 77.49C63.7523 77.49 60.1823 76.6733 57.009 75.04C53.8357 73.4067 51.339 71.0733 49.519 68.04C47.7457 64.96 46.859 61.3667 46.859 57.26C46.859 53.1533 47.7457 49.5833 49.519 46.55C51.339 43.47 53.8357 41.1133 57.009 39.48C60.1823 37.8467 63.7523 37.03 67.719 37.03C71.6857 37.03 75.2557 37.8467 78.429 39.48C81.6023 41.1133 84.0757 43.47 85.849 46.55C87.669 49.5833 88.579 53.1533 88.579 57.26C88.579 61.3667 87.669 64.96 85.849 68.04C84.0757 71.0733 81.6023 73.4067 78.429 75.04C75.2557 76.6733 71.6857 77.49 67.719 77.49ZM67.719 64.05C69.1657 64.05 70.379 63.49 71.359 62.37C72.339 61.2033 72.829 59.5 72.829 57.26C72.829 55.02 72.339 53.34 71.359 52.22C70.379 51.0533 69.1657 50.47 67.719 50.47C66.2723 50.47 65.059 51.0533 64.079 52.22C63.099 53.34 62.609 55.02 62.609 57.26C62.609 59.5 63.0757 61.2033 64.009 62.37C64.989 63.49 66.2257 64.05 67.719 64.05ZM109.001 44.8C110.588 42.5133 112.524 40.6933 114.811 39.34C117.098 37.94 119.478 37.24 121.951 37.24V53.83H117.541C114.601 53.83 112.431 54.3433 111.031 55.37C109.678 56.3967 109.001 58.2167 109.001 60.83V77H93.4609V37.52H109.001V44.8ZM150.707 63.77V77H144.827C134 77 128.587 71.61 128.587 60.83V50.47H123.687V37.52H128.587V28H144.127V37.52H150.567V50.47H144.127V61.11C144.127 62.0433 144.337 62.72 144.757 63.14C145.223 63.56 145.97 63.77 146.997 63.77H150.707ZM164.465 34.37C161.758 34.37 159.588 33.6467 157.955 32.2C156.322 30.7533 155.505 28.9333 155.505 26.74C155.505 24.5 156.322 22.6567 157.955 21.21C159.588 19.7167 161.758 18.97 164.465 18.97C167.125 18.97 169.272 19.7167 170.905 21.21C172.538 22.6567 173.355 24.5 173.355 26.74C173.355 28.9333 172.538 30.7533 170.905 32.2C169.272 33.6467 167.125 34.37 164.465 34.37ZM172.165 37.52V77H156.625V37.52H172.165Z" fill="#4EA8DE"/>
<path d="M201.934 34.72C201.094 34.6267 200.51 34.58 200.184 34.58C199.017 34.58 198.13 34.8133 197.524 35.28C196.917 35.7 196.497 36.4467 196.264 37.52H201.934V50.47H196.124V77H180.584V50.47H176.384V37.52H180.584C180.677 32.3867 182.287 28.42 185.414 25.62C188.587 22.7733 193.02 21.35 198.714 21.35C199.367 21.35 200.44 21.3967 201.934 21.49V34.72ZM224.877 77.49C220.911 77.49 217.341 76.6733 214.167 75.04C210.994 73.4067 208.497 71.0733 206.677 68.04C204.904 64.96 204.017 61.3667 204.017 57.26C204.017 53.1533 204.904 49.5833 206.677 46.55C208.497 43.47 210.994 41.1133 214.167 39.48C217.341 37.8467 220.911 37.03 224.877 37.03C228.844 37.03 232.414 37.8467 235.587 39.48C238.761 41.1133 241.234 43.47 243.007 46.55C244.827 49.5833 245.737 53.1533 245.737 57.26C245.737 61.3667 244.827 64.96 243.007 68.04C241.234 71.0733 238.761 73.4067 235.587 75.04C232.414 76.6733 228.844 77.49 224.877 77.49ZM224.877 64.05C226.324 64.05 227.537 63.49 228.517 62.37C229.497 61.2033 229.987 59.5 229.987 57.26C229.987 55.02 229.497 53.34 228.517 52.22C227.537 51.0533 226.324 50.47 224.877 50.47C223.431 50.47 222.217 51.0533 221.237 52.22C220.257 53.34 219.767 55.02 219.767 57.26C219.767 59.5 220.234 61.2033 221.167 62.37C222.147 63.49 223.384 64.05 224.877 64.05ZM235.587 28.28L217.457 34.86V24.5L235.587 16.8V28.28ZM266.159 25.2V77H250.619V25.2H266.159ZM281.018 34.37C278.311 34.37 276.141 33.6467 274.508 32.2C272.874 30.7533 272.058 28.9333 272.058 26.74C272.058 24.5 272.874 22.6567 274.508 21.21C276.141 19.7167 278.311 18.97 281.018 18.97C283.678 18.97 285.824 19.7167 287.458 21.21C289.091 22.6567 289.908 24.5 289.908 26.74C289.908 28.9333 289.091 30.7533 287.458 32.2C285.824 33.6467 283.678 34.37 281.018 34.37ZM288.718 37.52V77H273.178V37.52H288.718ZM314.496 77.49C310.53 77.49 306.96 76.6733 303.786 75.04C300.613 73.4067 298.116 71.0733 296.296 68.04C294.523 64.96 293.636 61.3667 293.636 57.26C293.636 53.1533 294.523 49.5833 296.296 46.55C298.116 43.47 300.613 41.1133 303.786 39.48C306.96 37.8467 310.53 37.03 314.496 37.03C318.463 37.03 322.033 37.8467 325.206 39.48C328.38 41.1133 330.853 43.47 332.626 46.55C334.446 49.5833 335.356 53.1533 335.356 57.26C335.356 61.3667 334.446 64.96 332.626 68.04C330.853 71.0733 328.38 73.4067 325.206 75.04C322.033 76.6733 318.463 77.49 314.496 77.49ZM314.496 64.05C315.943 64.05 317.156 63.49 318.136 62.37C319.116 61.2033 319.606 59.5 319.606 57.26C319.606 55.02 319.116 53.34 318.136 52.22C317.156 51.0533 315.943 50.47 314.496 50.47C313.05 50.47 311.836 51.0533 310.856 52.22C309.876 53.34 309.386 55.02 309.386 57.26C309.386 59.5 309.853 61.2033 310.786 62.37C311.766 63.49 313.003 64.05 314.496 64.05Z" fill="#5E60CE"/>
<g clip-path="url(#clip0_601_96)">
<path d="M370.534 23.1565C375.506 30.1327 378.161 38.7356 378.065 47.5631V49.6704L379.705 50.7736C381.825 52.1917 383.406 54.3912 384.16 56.9713C383.498 56.4327 382.806 55.94 382.087 55.4962L377.712 52.7816L376.925 58.2604C376.857 58.7445 376.766 59.2245 376.652 59.6983H364.393C364.211 59.0785 364.062 58.4587 363.926 57.8142L362.934 52.856L358.901 55.3351C358.227 55.7515 357.577 56.2109 356.953 56.711C357.722 54.1607 359.27 51.9735 361.339 50.5132L362.9 49.4101V47.4516C362.928 38.6598 365.615 30.1224 370.545 23.1565H370.534ZM370.545 18C370.289 18.0007 370.043 18.1019 369.85 18.2851L369.748 18.3843C363.178 26.3784 359.53 36.7156 359.494 47.4392C356.706 49.4071 354.642 52.3782 353.663 55.8335C352.685 59.2887 352.853 63.0083 354.139 66.3422C355.494 63.087 357.758 60.3801 360.61 58.6075C360.896 59.9554 361.277 61.2773 361.75 62.5616C361.81 62.8085 361.942 63.0271 362.128 63.1839C362.313 63.3407 362.54 63.4269 362.775 63.4293H378.589C378.908 63.4293 379.227 63.0946 379.386 62.574C379.847 61.353 380.169 60.0749 380.343 58.7686C383.201 60.5338 385.467 63.2429 386.815 66.5034C388.178 63.1859 388.389 59.4428 387.409 55.9688C386.428 52.4948 384.323 49.5258 381.483 47.6127C381.595 36.8259 377.967 26.3892 371.32 18.3843C371.221 18.2639 371.1 18.1674 370.964 18.1012C370.829 18.035 370.682 18.0006 370.534 18H370.545Z" fill="#4EA8DE"/>
<path d="M370.534 46.4104C369.659 46.4104 368.804 46.1285 368.075 45.6003C367.347 45.0721 366.779 44.3212 366.443 43.4423C366.106 42.5634 366.017 41.5958 366.185 40.6615C366.353 39.7271 366.772 38.8679 367.388 38.1921C368.005 37.5163 368.791 37.0542 369.649 36.864C370.506 36.6737 371.396 36.7639 372.207 37.1232C373.017 37.4824 373.712 38.0947 374.203 38.8827C374.694 39.6707 374.959 40.5993 374.966 41.5514V41.5514C374.98 42.1683 374.881 42.7822 374.677 43.3579C374.472 43.9335 374.166 44.4597 373.774 44.9063C373.383 45.3529 372.914 45.7113 372.395 45.9609C371.877 46.2104 371.318 46.3463 370.751 46.3608C370.679 46.3733 370.606 46.3733 370.534 46.3608V46.4104Z" fill="#4EA8DE"/>
<path d="M376.698 66.5158C376.413 66.5059 376.129 66.558 375.862 66.6691C375.596 66.7802 375.353 66.9481 375.147 67.1628C374.941 67.3776 374.777 67.6349 374.663 67.9197C374.55 68.2045 374.49 68.511 374.488 68.8213V76.1346C374.488 76.7724 374.72 77.3841 375.135 77.835C375.549 78.286 376.112 78.5394 376.698 78.5394C377.284 78.5394 377.846 78.286 378.261 77.835C378.675 77.3841 378.908 76.7724 378.908 76.1346V68.9205C378.917 68.6114 378.87 68.3034 378.768 68.0144C378.667 67.7255 378.514 67.4614 378.317 67.2376C378.121 67.0138 377.886 66.8347 377.626 66.7108C377.365 66.5868 377.085 66.5206 376.8 66.5158H376.698Z" fill="#5E60CE"/>
<path d="M364.393 66.5157C364.103 66.4991 363.813 66.546 363.54 66.6537C363.267 66.7615 363.017 66.9279 362.805 67.143C362.592 67.3581 362.421 67.6175 362.303 67.9058C362.184 68.1942 362.12 68.5055 362.115 68.8213V76.1346C362.115 76.7724 362.347 77.384 362.762 77.835C363.176 78.286 363.739 78.5393 364.325 78.5393C364.911 78.5393 365.473 78.286 365.888 77.835C366.302 77.384 366.535 76.7724 366.535 76.1346V68.9205C366.544 68.6113 366.497 68.3033 366.395 68.0144C366.294 67.7255 366.141 67.4614 365.944 67.2376C365.748 67.0138 365.513 66.8347 365.253 66.7107C364.992 66.5868 364.712 66.5205 364.427 66.5157H364.393Z" fill="#5E60CE"/>
<path d="M370.375 66.5158C370.09 66.5092 369.808 66.5636 369.543 66.676C369.278 66.7883 369.036 66.9563 368.83 67.1704C368.625 67.3845 368.461 67.6405 368.346 67.9238C368.232 68.207 368.17 68.512 368.164 68.8213V78.8988C368.164 79.5366 368.397 80.1483 368.812 80.5992C369.226 81.0502 369.788 81.3036 370.375 81.3036C370.961 81.3036 371.523 81.0502 371.938 80.5992C372.352 80.1483 372.585 79.5366 372.585 78.8988V68.9825C372.594 68.6734 372.546 68.3654 372.445 68.0764C372.344 67.7875 372.19 67.5234 371.994 67.2996C371.798 67.0758 371.563 66.8967 371.302 66.7728C371.042 66.6488 370.761 66.5825 370.477 66.5778L370.375 66.5158Z" fill="#5E60CE"/>
</g>
<defs>
<clipPath id="clip0_601_96">
<rect width="35" height="63.2911" fill="white" transform="translate(353 18)"/>
</clipPath>
</defs>
</svg>
